<svg width="1082" height="96" viewBox="0 0 1082 96" fill="none" xmlns="http://www.w3.org/2000/svg">
<path d="M27.4 29.2001V44.5601H36.4C38.48 44.5601 39.88 44.0401 40.6 43.0001C41.32 41.8801 41.68 40.5201 41.68 38.9201V34.8401C41.68 33.2401 41.32 31.9201 40.6 30.8801C39.88 29.7601 38.48 29.2001 36.4 29.2001H27.4ZM23.08 94.0001H4.60003C3.08003 94.0001 1.96003 93.6801 1.24003 93.0401C0.600029 92.3201 0.280029 91.2001 0.280029 89.6801V11.9201C0.280029 10.4001 0.600029 9.3201 1.24003 8.6801C1.96003 7.9601 3.08003 7.6001 4.60003 7.6001H44.56C53.52 7.6001 59.68 9.4801 63.04 13.2401C66.48 16.9201 68.2 21.7201 68.2 27.6401V33.1601C68.2 36.5201 67.68 39.4001 66.64 41.8001C65.68 44.1201 63.96 45.8001 61.48 46.8401C65.8 47.3201 69.28 49.0801 71.92 52.1201C74.64 55.1601 76 59.2001 76 64.2401V89.6801C76 91.2001 75.64 92.3201 74.92 93.0401C74.28 93.6801 73.2 94.0001 71.68 94.0001H53.08C51.56 94.0001 50.44 93.6801 49.72 93.0401C49.08 92.3201 48.76 91.2001 48.76 89.6801V71.3201C48.76 69.5601 48.4 68.2801 47.68 67.4801C47.04 66.6001 45.88 66.1601 44.2 66.1601H27.4V89.6801C27.4 91.2001 27.04 92.3201 26.32 93.0401C25.68 93.6801 24.6 94.0001 23.08 94.0001Z" fill="white"/>
<path d="M166.26 94.0001H110.58C109.06 94.0001 107.94 93.6801 107.22 93.0401C106.58 92.3201 106.26 91.2001 106.26 89.6801V11.9201C106.26 10.4001 106.58 9.3201 107.22 8.6801C107.94 7.9601 109.06 7.6001 110.58 7.6001H166.26C167.78 7.6001 168.86 7.9601 169.5 8.6801C170.22 9.3201 170.58 10.4001 170.58 11.9201V25.9601C170.58 27.4801 170.22 28.6001 169.5 29.3201C168.86 29.9601 167.78 30.2801 166.26 30.2801H133.14V39.5201H156.54C158.06 39.5201 159.14 39.8801 159.78 40.6001C160.5 41.2401 160.86 42.3201 160.86 43.8401V56.6801C160.86 58.2001 160.5 59.3201 159.78 60.0401C159.14 60.6801 158.06 61.0001 156.54 61.0001H133.14V71.3201H166.26C167.78 71.3201 168.86 71.6801 169.5 72.4001C170.22 73.0401 170.58 74.1201 170.58 75.6401V89.6801C170.58 91.2001 170.22 92.3201 169.5 93.0401C168.86 93.6801 167.78 94.0001 166.26 94.0001Z" fill="white"/>
<path d="M223.895 94.0001H205.895C204.375 94.0001 203.255 93.6801 202.535 93.0401C201.895 92.3201 201.575 91.2001 201.575 89.6801V11.9201C201.575 10.4001 201.895 9.3201 202.535 8.6801C203.255 7.9601 204.375 7.6001 205.895 7.6001H218.375C219.895 7.6001 221.175 7.8401 222.215 8.3201C223.335 8.8001 224.415 9.6401 225.455 10.8401L248.735 37.4801V11.9201C248.735 10.4001 249.055 9.3201 249.695 8.6801C250.415 7.9601 251.535 7.6001 253.055 7.6001H271.055C272.575 7.6001 273.655 7.9601 274.295 8.6801C275.015 9.3201 275.375 10.4001 275.375 11.9201V89.6801C275.375 91.2001 275.015 92.3201 274.295 93.0401C273.655 93.6801 272.575 94.0001 271.055 94.0001H253.055C251.535 94.0001 250.415 93.6801 249.695 93.0401C249.055 92.3201 248.735 91.2001 248.735 89.6801V74.9201L228.215 50.0801V89.6801C228.215 91.2001 227.855 92.3201 227.135 93.0401C226.495 93.6801 225.415 94.0001 223.895 94.0001Z" fill="white"/>
<path d="M349.527 94.0001H330.087C328.567 94.0001 327.447 93.6801 326.727 93.0401C326.087 92.3201 325.767 91.2001 325.767 89.6801V30.7601H308.127C306.607 30.7601 305.487 30.4401 304.767 29.8001C304.127 29.0801 303.807 27.9601 303.807 26.4401V11.9201C303.807 10.4001 304.127 9.3201 304.767 8.6801C305.487 7.9601 306.607 7.6001 308.127 7.6001H371.487C373.007 7.6001 374.087 7.9601 374.727 8.6801C375.447 9.3201 375.807 10.4001 375.807 11.9201V26.4401C375.807 27.9601 375.447 29.0801 374.727 29.8001C374.087 30.4401 373.007 30.7601 371.487 30.7601H353.847V89.6801C353.847 91.2001 353.487 92.3201 352.767 93.0401C352.127 93.6801 351.047 94.0001 349.527 94.0001Z" fill="white"/>
<path d="M426.477 94.0001H408.597C407.077 94.0001 405.957 93.6801 405.237 93.0401C404.597 92.3201 404.277 91.2001 404.277 89.6801V11.9201C404.277 10.4001 404.597 9.3201 405.237 8.6801C405.957 7.9601 407.077 7.6001 408.597 7.6001H427.917C429.197 7.6001 430.237 7.8801 431.037 8.44009C431.917 9.0001 432.717 9.9201 433.437 11.2001L444.237 30.7601C444.637 31.4801 444.957 32.0001 445.197 32.3201C445.517 32.6401 445.917 32.8001 446.397 32.8001H447.477C447.957 32.8001 448.317 32.6401 448.557 32.3201C448.877 32.0001 449.237 31.4801 449.637 30.7601L460.317 11.2001C461.037 9.9201 461.797 9.0001 462.597 8.44009C463.477 7.8801 464.557 7.6001 465.837 7.6001H485.277C486.797 7.6001 487.877 7.9601 488.517 8.6801C489.237 9.3201 489.597 10.4001 489.597 11.9201V89.6801C489.597 91.2001 489.237 92.3201 488.517 93.0401C487.877 93.6801 486.797 94.0001 485.277 94.0001H466.797C465.277 94.0001 464.157 93.6801 463.437 93.0401C462.797 92.3201 462.477 91.2001 462.477 89.6801V47.4401L455.397 60.5201C454.677 61.8801 453.797 62.8801 452.757 63.5201C451.797 64.0801 450.557 64.3601 449.037 64.3601H444.237C442.717 64.3601 441.437 64.0801 440.397 63.5201C439.437 62.8801 438.597 61.8801 437.877 60.5201L430.797 47.4401V89.6801C430.797 91.2001 430.437 92.3201 429.717 93.0401C429.077 93.6801 427.997 94.0001 426.477 94.0001Z" fill="white"/>
<path d="M569.233 76.8401H544.873L524.593 49.7201C522.753 47.2401 521.513 45.0801 520.873 43.2401C520.313 41.4001 520.033 38.6401 520.033 34.9601V11.9201C520.033 10.4001 520.353 9.3201 520.993 8.6801C521.713 7.9601 522.833 7.6001 524.353 7.6001H542.833C544.353 7.6001 545.433 7.9601 546.073 8.6801C546.793 9.3201 547.153 10.4001 547.153 11.9201V31.6001C547.153 32.4001 547.193 33.2401 547.273 34.1201C547.353 35.0001 547.673 35.8401 548.233 36.6401L553.753 45.2801C554.153 46.0001 554.553 46.5201 554.953 46.8401C555.433 47.1601 555.993 47.3201 556.633 47.3201H557.833C558.473 47.3201 558.993 47.1601 559.393 46.8401C559.873 46.5201 560.313 46.0001 560.713 45.2801L566.233 36.6401C566.793 35.8401 567.113 35.0001 567.193 34.1201C567.273 33.2401 567.313 32.4001 567.313 31.6001V11.9201C567.313 10.4001 567.633 9.3201 568.273 8.6801C568.993 7.9601 570.113 7.6001 571.633 7.6001H589.513C591.033 7.6001 592.113 7.9601 592.753 8.6801C593.473 9.3201 593.833 10.4001 593.833 11.9201V34.9601C593.833 38.6401 593.513 41.4001 592.873 43.2401C592.233 45.0801 591.033 47.2401 589.273 49.7201L569.233 76.8401ZM566.713 94.0001H547.273C545.753 94.0001 544.633 93.6801 543.913 93.0401C543.273 92.3201 542.953 91.2001 542.953 89.6801V67.1201H571.033V89.6801C571.033 91.2001 570.673 92.3201 569.953 93.0401C569.313 93.6801 568.233 94.0001 566.713 94.0001Z" fill="white"/>
<path d="M664.402 94.0001H626.482C624.962 94.0001 623.842 93.6801 623.122 93.0401C622.482 92.3201 622.162 91.2001 622.162 89.6801V75.6401C622.162 74.1201 622.482 73.0401 623.122 72.4001C623.842 71.6801 624.962 71.3201 626.482 71.3201H658.762C659.802 71.3201 660.562 71.0001 661.042 70.3601C661.602 69.6401 661.882 68.8001 661.882 67.8401C661.882 66.4801 661.602 65.4801 661.042 64.8401C660.562 64.2001 659.802 63.8401 658.762 63.7601L640.762 61.2401C635.162 60.4401 630.642 58.6001 627.202 55.7201C623.842 52.8401 622.162 48.0401 622.162 41.3201V28.7201C622.162 21.9201 624.362 16.7201 628.762 13.1201C633.162 9.4401 639.242 7.6001 647.002 7.6001H680.602C682.122 7.6001 683.202 7.9601 683.842 8.6801C684.562 9.3201 684.922 10.4001 684.922 11.9201V26.2001C684.922 27.7201 684.562 28.8401 683.842 29.5601C683.202 30.2001 682.122 30.5201 680.602 30.5201H652.642C651.602 30.5201 650.802 30.8801 650.242 31.6001C649.682 32.2401 649.402 33.0801 649.402 34.1201C649.402 35.1601 649.682 36.0401 650.242 36.7601C650.802 37.4801 651.602 37.8801 652.642 37.9601L670.522 40.3601C676.122 41.1601 680.642 43.0001 684.082 45.8801C687.522 48.7601 689.242 53.5601 689.242 60.2801V72.8801C689.242 79.6801 687.002 84.9201 682.522 88.6001C678.122 92.2001 672.082 94.0001 664.402 94.0001Z" fill="white"/>
<path d="M758.797 94.0001H739.357C737.837 94.0001 736.717 93.6801 735.997 93.0401C735.357 92.3201 735.037 91.2001 735.037 89.6801V30.7601H717.397C715.877 30.7601 714.757 30.4401 714.037 29.8001C713.397 29.0801 713.077 27.9601 713.077 26.4401V11.9201C713.077 10.4001 713.397 9.3201 714.037 8.6801C714.757 7.9601 715.877 7.6001 717.397 7.6001H780.757C782.277 7.6001 783.357 7.9601 783.997 8.6801C784.717 9.3201 785.077 10.4001 785.077 11.9201V26.4401C785.077 27.9601 784.717 29.0801 783.997 29.8001C783.357 30.4401 782.277 30.7601 780.757 30.7601H763.117V89.6801C763.117 91.2001 762.757 92.3201 762.037 93.0401C761.397 93.6801 760.317 94.0001 758.797 94.0001Z" fill="white"/>
<path d="M887.107 71.3201C887.107 75.0001 886.547 78.3601 885.427 81.4001C884.387 84.3601 882.467 86.9201 879.667 89.0801C876.947 91.1601 873.187 92.8001 868.387 94.0001C863.587 95.2001 857.467 95.8001 850.027 95.8001C842.587 95.8001 836.467 95.2001 831.667 94.0001C826.867 92.8001 823.067 91.1601 820.267 89.0801C817.547 86.9201 815.627 84.3601 814.507 81.4001C813.467 78.3601 812.947 75.0001 812.947 71.3201V11.9201C812.947 10.4001 813.267 9.3201 813.907 8.6801C814.627 7.9601 815.747 7.6001 817.267 7.6001H836.107C837.627 7.6001 838.707 7.9601 839.347 8.6801C840.067 9.3201 840.427 10.4001 840.427 11.9201V66.6401C840.427 68.2401 841.027 69.6001 842.227 70.7201C843.427 71.7601 846.107 72.2801 850.267 72.2801C854.507 72.2801 857.227 71.7601 858.427 70.7201C859.627 69.6001 860.227 68.2401 860.227 66.6401V11.9201C860.227 10.4001 860.547 9.3201 861.187 8.6801C861.907 7.9601 863.027 7.6001 864.547 7.6001H882.787C884.307 7.6001 885.387 7.9601 886.027 8.6801C886.747 9.3201 887.107 10.4001 887.107 11.9201V71.3201Z" fill="white"/>
<path d="M942.798 94.0001H924.198C922.678 94.0001 921.559 93.6801 920.839 93.0401C920.199 92.3201 919.878 91.2001 919.878 89.6801V11.9201C919.878 10.4001 920.199 9.3201 920.839 8.6801C921.559 7.9601 922.678 7.6001 924.198 7.6001H977.719C979.239 7.6001 980.318 7.9601 980.958 8.6801C981.678 9.3201 982.038 10.4001 982.038 11.9201V26.2001C982.038 27.7201 981.678 28.8401 980.958 29.5601C980.318 30.2001 979.239 30.5201 977.719 30.5201H947.118V43.0001H967.998C969.518 43.0001 970.598 43.3601 971.238 44.0801C971.958 44.7201 972.318 45.8001 972.318 47.3201V61.7201C972.318 63.2401 971.958 64.3601 971.238 65.0801C970.598 65.7201 969.518 66.0401 967.998 66.0401H947.118V89.6801C947.118 91.2001 946.758 92.3201 946.038 93.0401C945.398 93.6801 944.318 94.0001 942.798 94.0001Z" fill="white"/>
<path d="M1033.78 94.0001H1015.18C1013.66 94.0001 1012.54 93.6801 1011.82 93.0401C1011.18 92.3201 1010.86 91.2001 1010.86 89.6801V11.9201C1010.86 10.4001 1011.18 9.3201 1011.82 8.6801C1012.54 7.9601 1013.66 7.6001 1015.18 7.6001H1068.7C1070.22 7.6001 1071.3 7.9601 1071.94 8.6801C1072.66 9.3201 1073.02 10.4001 1073.02 11.9201V26.2001C1073.02 27.7201 1072.66 28.8401 1071.94 29.5601C1071.3 30.2001 1070.22 30.5201 1068.7 30.5201H1038.1V43.0001H1058.98C1060.5 43.0001 1061.58 43.3601 1062.22 44.0801C1062.94 44.7201 1063.3 45.8001 1063.3 47.3201V61.7201C1063.3 63.2401 1062.94 64.3601 1062.22 65.0801C1061.58 65.7201 1060.5 66.0401 1058.98 66.0401H1038.1V89.6801C1038.1 91.2001 1037.74 92.3201 1037.02 93.0401C1036.38 93.6801 1035.3 94.0001 1033.78 94.0001Z" fill="white"/>
<path d="M48.6 12.6001C52.84 12.6001 55.96 13.7601 57.96 16.0801C60.04 18.4001 61.08 21.4001 61.08 25.0801V33.4801C61.08 37.8801 60.24 41.2801 58.56 43.6801C56.88 46.0801 53.56 47.2801 48.6 47.2801H22.44V12.6001H48.6ZM35.4 22.2001V37.5601H44.4C46.48 37.5601 47.88 37.0401 48.6 36.0001C49.32 34.8801 49.68 33.5201 49.68 31.9201V27.8401C49.68 26.2401 49.32 24.9201 48.6 23.8801C47.88 22.7601 46.48 22.2001 44.4 22.2001H35.4ZM22.44 76.2001V48.3601H56.4C60.96 48.3601 64.32 49.3601 66.48 51.3601C68.64 53.2801 69.72 56.2001 69.72 60.1201V76.2001H70.92V60.1201C70.92 55.9601 69.72 52.8001 67.32 50.6401C64.92 48.4001 61.28 47.2801 56.4 47.2801H55.08C57.96 46.4001 59.88 44.8001 60.84 42.4801C61.8 40.0801 62.28 37.0401 62.28 33.3601V25.0801C62.28 21.1601 61.16 17.9201 58.92 15.3601C56.68 12.7201 53.24 11.4001 48.6 11.4001H21.24V76.2001H22.44ZM31.08 87.0001H12.6C11.08 87.0001 9.96003 86.6801 9.24003 86.0401C8.60003 85.3201 8.28003 84.2001 8.28003 82.6801V4.9201C8.28003 3.4001 8.60003 2.3201 9.24003 1.6801C9.96003 0.960098 11.08 0.600098 12.6 0.600098H52.56C61.52 0.600098 67.68 2.4801 71.04 6.2401C74.48 9.9201 76.2 14.7201 76.2 20.6401V26.1601C76.2 29.5201 75.68 32.4001 74.64 34.8001C73.68 37.1201 71.96 38.8001 69.48 39.8401C73.8 40.3201 77.28 42.0801 79.92 45.1201C82.64 48.1601 84 52.2001 84 57.2401V82.6801C84 84.2001 83.64 85.3201 82.92 86.0401C82.28 86.6801 81.2 87.0001 79.68 87.0001H61.08C59.56 87.0001 58.44 86.6801 57.72 86.0401C57.08 85.3201 56.76 84.2001 56.76 82.6801V64.3201C56.76 62.5601 56.4 61.2801 55.68 60.4801C55.04 59.6001 53.88 59.1601 52.2 59.1601H35.4V82.6801C35.4 84.2001 35.04 85.3201 34.32 86.0401C33.68 86.6801 32.6 87.0001 31.08 87.0001Z" fill="#FF7B43"/>
<path d="M174.26 87.0001H118.58C117.06 87.0001 115.94 86.6801 115.22 86.0401C114.58 85.3201 114.26 84.2001 114.26 82.6801V4.9201C114.26 3.4001 114.58 2.3201 115.22 1.6801C115.94 0.960098 117.06 0.600098 118.58 0.600098H174.26C175.78 0.600098 176.86 0.960098 177.5 1.6801C178.22 2.3201 178.58 3.4001 178.58 4.9201V18.9601C178.58 20.4801 178.22 21.6001 177.5 22.3201C176.86 22.9601 175.78 23.2801 174.26 23.2801H141.14V32.5201H164.54C166.06 32.5201 167.14 32.8801 167.78 33.6001C168.5 34.2401 168.86 35.3201 168.86 36.8401V49.6801C168.86 51.2001 168.5 52.3201 167.78 53.0401C167.14 53.6801 166.06 54.0001 164.54 54.0001H141.14V64.3201H174.26C175.78 64.3201 176.86 64.6801 177.5 65.4001C178.22 66.0401 178.58 67.1201 178.58 68.6401V82.6801C178.58 84.2001 178.22 85.3201 177.5 86.0401C176.86 86.6801 175.78 87.0001 174.26 87.0001ZM167.78 75.0001H128.54V43.9201H158.06V42.7201H128.54V12.6001H167.78V11.4001H127.34V76.2001H167.78V75.0001Z" fill="#FF7B43"/>
<path d="M225.415 12.3601C225.015 11.9601 224.695 11.6801 224.455 11.5201C224.215 11.3601 223.935 11.2801 223.615 11.2801C223.295 11.2801 222.975 11.4001 222.655 11.6401C222.335 11.8801 222.175 12.2401 222.175 12.7201V76.2001H223.375V12.9601C223.375 12.8801 223.375 12.8001 223.375 12.7201C223.455 12.6401 223.535 12.6001 223.615 12.6001C223.695 12.6001 223.775 12.6401 223.855 12.7201C224.015 12.8001 224.135 12.8801 224.215 12.9601L269.575 63.8401V76.2001H270.775V11.4001H269.575V62.0401L225.415 12.3601ZM231.895 87.0001H213.895C212.375 87.0001 211.255 86.6801 210.535 86.0401C209.895 85.3201 209.575 84.2001 209.575 82.6801V4.9201C209.575 3.4001 209.895 2.3201 210.535 1.6801C211.255 0.960098 212.375 0.600098 213.895 0.600098H226.375C227.895 0.600098 229.175 0.840097 230.215 1.3201C231.335 1.8001 232.415 2.6401 233.455 3.8401L256.735 30.4801V4.9201C256.735 3.4001 257.055 2.3201 257.695 1.6801C258.415 0.960098 259.535 0.600098 261.055 0.600098H279.055C280.575 0.600098 281.655 0.960098 282.295 1.6801C283.015 2.3201 283.375 3.4001 283.375 4.9201V82.6801C283.375 84.2001 283.015 85.3201 282.295 86.0401C281.655 86.6801 280.575 87.0001 279.055 87.0001H261.055C259.535 87.0001 258.415 86.6801 257.695 86.0401C257.055 85.3201 256.735 84.2001 256.735 82.6801V67.9201L236.215 43.0801V82.6801C236.215 84.2001 235.855 85.3201 235.135 86.0401C234.495 86.6801 233.415 87.0001 231.895 87.0001Z" fill="#FF7B43"/>
<path d="M357.527 87.0001H338.087C336.567 87.0001 335.447 86.6801 334.727 86.0401C334.087 85.3201 333.767 84.2001 333.767 82.6801V23.7601H316.127C314.607 23.7601 313.487 23.4401 312.767 22.8001C312.127 22.0801 311.807 20.9601 311.807 19.4401V4.9201C311.807 3.4001 312.127 2.3201 312.767 1.6801C313.487 0.960098 314.607 0.600098 316.127 0.600098H379.487C381.007 0.600098 382.087 0.960098 382.727 1.6801C383.447 2.3201 383.807 3.4001 383.807 4.9201V19.4401C383.807 20.9601 383.447 22.0801 382.727 22.8001C382.087 23.4401 381.007 23.7601 379.487 23.7601H361.847V82.6801C361.847 84.2001 361.487 85.3201 360.767 86.0401C360.127 86.6801 359.047 87.0001 357.527 87.0001ZM347.207 76.2001H348.407V12.6001H373.007V11.4001H322.607V12.6001H347.207V76.2001Z" fill="#FF7B43"/>
<path d="M454.517 40.8001C453.077 40.8001 452.037 40.4801 451.397 39.8401C450.757 39.2001 449.757 37.8401 448.397 35.7601L433.757 13.4401C433.277 12.6401 432.717 12.1201 432.077 11.8801C431.437 11.5601 430.797 11.4001 430.157 11.4001H428.117C427.077 11.4001 426.277 11.7201 425.717 12.3601C425.237 12.9201 424.997 13.8401 424.997 15.1201V76.2001H426.197V15.1201C426.197 14.4801 426.317 13.9201 426.557 13.4401C426.797 12.8801 427.317 12.6001 428.117 12.6001H429.917C430.477 12.6001 430.957 12.6801 431.357 12.8401C431.837 13.0001 432.317 13.4801 432.797 14.2801L447.437 36.3601C448.877 38.5201 449.957 40.0001 450.677 40.8001C451.477 41.6001 452.757 42.0001 454.517 42.0001C456.277 42.0001 457.517 41.6001 458.237 40.8001C459.037 40.0001 460.157 38.5201 461.597 36.3601L476.237 14.2801C476.717 13.4801 477.157 13.0001 477.557 12.8401C477.957 12.6801 478.437 12.6001 478.997 12.6001H480.797C481.597 12.6001 482.117 12.8801 482.357 13.4401C482.677 13.9201 482.837 14.4801 482.837 15.1201V76.2001H484.037V15.1201C484.037 13.8401 483.757 12.9201 483.197 12.3601C482.717 11.7201 481.917 11.4001 480.797 11.4001H478.757C478.117 11.4001 477.477 11.5601 476.837 11.8801C476.277 12.1201 475.757 12.6401 475.277 13.4401L460.637 35.7601C459.277 37.8401 458.277 39.2001 457.637 39.8401C456.997 40.4801 455.957 40.8001 454.517 40.8001ZM434.477 87.0001H416.597C415.077 87.0001 413.957 86.6801 413.237 86.0401C412.597 85.3201 412.277 84.2001 412.277 82.6801V4.9201C412.277 3.4001 412.597 2.3201 413.237 1.6801C413.957 0.960098 415.077 0.600098 416.597 0.600098H435.917C437.197 0.600098 438.237 0.880096 439.037 1.44009C439.917 2.0001 440.717 2.9201 441.437 4.20009L452.237 23.7601C452.637 24.4801 452.957 25.0001 453.197 25.3201C453.517 25.6401 453.917 25.8001 454.397 25.8001H455.477C455.957 25.8001 456.317 25.6401 456.557 25.3201C456.877 25.0001 457.237 24.4801 457.637 23.7601L468.317 4.20009C469.037 2.9201 469.797 2.0001 470.597 1.44009C471.477 0.880096 472.557 0.600098 473.837 0.600098H493.277C494.797 0.600098 495.877 0.960098 496.517 1.6801C497.237 2.3201 497.597 3.4001 497.597 4.9201V82.6801C497.597 84.2001 497.237 85.3201 496.517 86.0401C495.877 86.6801 494.797 87.0001 493.277 87.0001H474.797C473.277 87.0001 472.157 86.6801 471.437 86.0401C470.797 85.3201 470.477 84.2001 470.477 82.6801V40.4401L463.397 53.5201C462.677 54.8801 461.797 55.8801 460.757 56.5201C459.797 57.0801 458.557 57.3601 457.037 57.3601H452.237C450.717 57.3601 449.437 57.0801 448.397 56.5201C447.437 55.8801 446.597 54.8801 445.877 53.5201L438.797 40.4401V82.6801C438.797 84.2001 438.437 85.3201 437.717 86.0401C437.077 86.6801 435.997 87.0001 434.477 87.0001Z" fill="#FF7B43"/>
<path d="M574.713 87.0001H555.273C553.753 87.0001 552.633 86.6801 551.913 86.0401C551.273 85.3201 550.953 84.2001 550.953 82.6801V67.3201L532.593 42.7201C530.753 40.2401 529.513 38.0801 528.873 36.2401C528.313 34.4001 528.033 31.6401 528.033 27.9601V4.9201C528.033 3.4001 528.353 2.3201 528.993 1.6801C529.713 0.960098 530.833 0.600098 532.353 0.600098H550.833C552.353 0.600098 553.433 0.960098 554.073 1.6801C554.793 2.3201 555.153 3.4001 555.153 4.9201V24.6001C555.153 25.4001 555.193 26.2401 555.273 27.1201C555.353 28.0001 555.673 28.8401 556.233 29.6401L561.753 38.2801C562.153 39.0001 562.553 39.5201 562.953 39.8401C563.433 40.1601 563.993 40.3201 564.633 40.3201H565.833C566.473 40.3201 566.993 40.1601 567.393 39.8401C567.873 39.5201 568.313 39.0001 568.713 38.2801L574.233 29.6401C574.793 28.8401 575.113 28.0001 575.193 27.1201C575.273 26.2401 575.313 25.4001 575.313 24.6001V4.9201C575.313 3.4001 575.633 2.3201 576.273 1.6801C576.993 0.960098 578.113 0.600098 579.633 0.600098H597.513C599.033 0.600098 600.113 0.960098 600.753 1.6801C601.473 2.3201 601.833 3.4001 601.833 4.9201V27.9601C601.833 31.6401 601.513 34.4001 600.873 36.2401C600.233 38.0801 599.033 40.2401 597.273 42.7201L579.033 67.4401V82.6801C579.033 84.2001 578.673 85.3201 577.953 86.0401C577.313 86.6801 576.233 87.0001 574.713 87.0001ZM566.433 55.6801C568.273 55.6801 569.873 55.2801 571.233 54.4801C572.673 53.6801 574.033 52.4001 575.313 50.6401L587.313 34.4401C588.273 33.1601 588.793 31.7601 588.873 30.2401C589.033 28.6401 589.113 26.9601 589.113 25.2001V11.4001H587.913V25.2001C587.913 26.8801 587.833 28.5201 587.673 30.1201C587.513 31.6401 587.033 32.9201 586.233 33.9601L574.233 50.1601C573.033 51.6801 571.793 52.8001 570.513 53.5201C569.313 54.1601 567.953 54.4801 566.433 54.4801H563.193C561.833 54.4801 560.473 54.1601 559.113 53.5201C557.753 52.8801 556.553 51.7601 555.513 50.1601L543.873 33.9601C543.073 32.7601 542.593 31.4401 542.433 30.0001C542.273 28.4801 542.193 26.8801 542.193 25.2001V11.4001H540.993V25.2001C540.993 26.9601 541.073 28.6401 541.233 30.2401C541.393 31.8401 541.913 33.2401 542.793 34.4401L554.433 50.6401C555.713 52.4001 557.033 53.6801 558.393 54.4801C559.833 55.2801 561.433 55.6801 563.193 55.6801H564.393V76.2001H565.593V55.6801H566.433Z" fill="#FF7B43"/>
<path d="M672.402 87.0001H634.482C632.962 87.0001 631.842 86.6801 631.122 86.0401C630.482 85.3201 630.162 84.2001 630.162 82.6801V68.6401C630.162 67.1201 630.482 66.0401 631.122 65.4001C631.842 64.6801 632.962 64.3201 634.482 64.3201H666.762C667.802 64.3201 668.562 64.0001 669.042 63.3601C669.602 62.6401 669.882 61.8001 669.882 60.8401C669.882 59.4801 669.602 58.4801 669.042 57.8401C668.562 57.2001 667.802 56.8401 666.762 56.7601L648.762 54.2401C643.162 53.4401 638.642 51.6001 635.202 48.7201C631.842 45.8401 630.162 41.0401 630.162 34.3201V21.7201C630.162 14.9201 632.362 9.7201 636.762 6.1201C641.162 2.4401 647.242 0.600098 655.002 0.600098H688.602C690.122 0.600098 691.202 0.960098 691.842 1.6801C692.562 2.3201 692.922 3.4001 692.922 4.9201V19.2001C692.922 20.7201 692.562 21.8401 691.842 22.5601C691.202 23.2001 690.122 23.5201 688.602 23.5201H660.642C659.602 23.5201 658.802 23.8801 658.242 24.6001C657.682 25.2401 657.402 26.0801 657.402 27.1201C657.402 28.1601 657.682 29.0401 658.242 29.7601C658.802 30.4801 659.602 30.8801 660.642 30.9601L678.522 33.3601C684.122 34.1601 688.642 36.0001 692.082 38.8801C695.522 41.7601 697.242 46.5601 697.242 53.2801V65.8801C697.242 72.6801 695.002 77.9201 690.522 81.6001C686.122 85.2001 680.082 87.0001 672.402 87.0001ZM682.122 11.4001H655.482C651.802 11.4001 648.842 12.4401 646.602 14.5201C644.362 16.5201 643.242 19.1201 643.242 22.3201V32.1601C643.242 35.4401 643.882 37.7201 645.162 39.0001C646.522 40.2001 648.242 41.0001 650.322 41.4001L675.642 46.5601C677.882 47.0401 679.642 48.0001 680.922 49.4401C682.282 50.8001 682.962 53.3601 682.962 57.1201V64.0801C682.962 67.2801 681.842 69.9201 679.602 72.0001C677.442 74.0001 674.522 75.0001 670.842 75.0001H640.962V76.2001H670.842C674.922 76.2001 678.162 75.0801 680.562 72.8401C682.962 70.5201 684.162 67.6001 684.162 64.0801V57.1201C684.162 52.9601 683.362 50.0801 681.762 48.4801C680.242 46.8801 678.282 45.8401 675.882 45.3601L650.562 40.2001C648.722 39.8801 647.242 39.1601 646.122 38.0401C645.002 36.9201 644.442 34.9601 644.442 32.1601V22.3201C644.442 19.5201 645.442 17.2001 647.442 15.3601C649.442 13.5201 652.122 12.6001 655.482 12.6001H682.122V11.4001Z" fill="#FF7B43"/>
<path d="M766.797 87.0001H747.357C745.837 87.0001 744.717 86.6801 743.997 86.0401C743.357 85.3201 743.037 84.2001 743.037 82.6801V23.7601H725.397C723.877 23.7601 722.757 23.4401 722.037 22.8001C721.397 22.0801 721.077 20.9601 721.077 19.4401V4.9201C721.077 3.4001 721.397 2.3201 722.037 1.6801C722.757 0.960098 723.877 0.600098 725.397 0.600098H788.757C790.277 0.600098 791.357 0.960098 791.997 1.6801C792.717 2.3201 793.077 3.4001 793.077 4.9201V19.4401C793.077 20.9601 792.717 22.0801 791.997 22.8001C791.357 23.4401 790.277 23.7601 788.757 23.7601H771.117V82.6801C771.117 84.2001 770.757 85.3201 770.037 86.0401C769.397 86.6801 768.317 87.0001 766.797 87.0001ZM756.477 76.2001H757.677V12.6001H782.277V11.4001H731.877V12.6001H756.477V76.2001Z" fill="#FF7B43"/>
<path d="M895.107 64.3201C895.107 68.0001 894.547 71.3601 893.427 74.4001C892.387 77.3601 890.467 79.9201 887.667 82.0801C884.947 84.1601 881.187 85.8001 876.387 87.0001C871.587 88.2001 865.467 88.8001 858.027 88.8001C850.587 88.8001 844.467 88.2001 839.667 87.0001C834.867 85.8001 831.067 84.1601 828.267 82.0801C825.547 79.9201 823.627 77.3601 822.507 74.4001C821.467 71.3601 820.947 68.0001 820.947 64.3201V4.9201C820.947 3.4001 821.267 2.3201 821.907 1.6801C822.627 0.960098 823.747 0.600098 825.267 0.600098H844.107C845.627 0.600098 846.707 0.960098 847.347 1.6801C848.067 2.3201 848.427 3.4001 848.427 4.9201V59.6401C848.427 61.2401 849.027 62.6001 850.227 63.7201C851.427 64.7601 854.107 65.2801 858.267 65.2801C862.507 65.2801 865.227 64.7601 866.427 63.7201C867.627 62.6001 868.227 61.2401 868.227 59.6401V4.9201C868.227 3.4001 868.547 2.3201 869.187 1.6801C869.907 0.960098 871.027 0.600098 872.547 0.600098H890.787C892.307 0.600098 893.387 0.960098 894.027 1.6801C894.747 2.3201 895.107 3.4001 895.107 4.9201V64.3201ZM834.147 11.4001V61.4401C834.147 66.2401 835.787 70.1601 839.067 73.2001C842.427 76.1601 848.787 77.6401 858.147 77.6401C867.507 77.6401 873.867 76.1601 877.227 73.2001C880.587 70.1601 882.267 66.2401 882.267 61.4401V11.4001H881.067V61.4401C881.067 65.9201 879.467 69.5601 876.267 72.3601C873.067 75.0801 867.027 76.4401 858.147 76.4401C849.267 76.4401 843.227 75.0801 840.027 72.3601C836.907 69.5601 835.347 65.9201 835.347 61.4401V11.4001H834.147Z" fill="#FF7B43"/>
<path d="M950.798 87.0001H932.198C930.678 87.0001 929.559 86.6801 928.839 86.0401C928.199 85.3201 927.878 84.2001 927.878 82.6801V4.9201C927.878 3.4001 928.199 2.3201 928.839 1.6801C929.559 0.960098 930.678 0.600098 932.198 0.600098H985.719C987.239 0.600098 988.318 0.960098 988.958 1.6801C989.678 2.3201 990.038 3.4001 990.038 4.9201V19.2001C990.038 20.7201 989.678 21.8401 988.958 22.5601C988.318 23.2001 987.239 23.5201 985.719 23.5201H955.118V36.0001H975.998C977.518 36.0001 978.598 36.3601 979.238 37.0801C979.958 37.7201 980.318 38.8001 980.318 40.3201V54.7201C980.318 56.2401 979.958 57.3601 979.238 58.0801C978.598 58.7201 977.518 59.0401 975.998 59.0401H955.118V82.6801C955.118 84.2001 954.758 85.3201 954.038 86.0401C953.398 86.6801 952.318 87.0001 950.798 87.0001ZM940.958 76.2001H942.159V48.1201H969.518V46.9201H942.159V12.6001H979.238V11.4001H940.958V76.2001Z" fill="#FF7B43"/>
<path d="M1041.78 87.0001H1023.18C1021.66 87.0001 1020.54 86.6801 1019.82 86.0401C1019.18 85.3201 1018.86 84.2001 1018.86 82.6801V4.9201C1018.86 3.4001 1019.18 2.3201 1019.82 1.6801C1020.54 0.960098 1021.66 0.600098 1023.18 0.600098H1076.7C1078.22 0.600098 1079.3 0.960098 1079.94 1.6801C1080.66 2.3201 1081.02 3.4001 1081.02 4.9201V19.2001C1081.02 20.7201 1080.66 21.8401 1079.94 22.5601C1079.3 23.2001 1078.22 23.5201 1076.7 23.5201H1046.1V36.0001H1066.98C1068.5 36.0001 1069.58 36.3601 1070.22 37.0801C1070.94 37.7201 1071.3 38.8001 1071.3 40.3201V54.7201C1071.3 56.2401 1070.94 57.3601 1070.22 58.0801C1069.58 58.7201 1068.5 59.0401 1066.98 59.0401H1046.1V82.6801C1046.1 84.2001 1045.74 85.3201 1045.02 86.0401C1044.38 86.6801 1043.3 87.0001 1041.78 87.0001ZM1031.94 76.2001H1033.14V48.1201H1060.5V46.9201H1033.14V12.6001H1070.22V11.4001H1031.94V76.2001Z" fill="#FF7B43"/>
</svg>
